<mxfile host="app.diagrams.net" modified="2023-08-11T02:03:29.027Z" agent="Mozilla/5.0 (Windows NT 10.0; Win64; x64) AppleWebKit/537.36 (KHTML, like Gecko) Chrome/115.0.0.0 Safari/537.36" etag="g7eH1y1q1fJFVGbWDPDb" version="21.6.7" type="github">
  <diagram name="第 1 页" id="-WIHNXKfvVTFxInO3pld">
    <mxGraphModel dx="1050" dy="553" grid="1" gridSize="10" guides="1" tooltips="1" connect="1" arrows="1" fold="1" page="1" pageScale="1" pageWidth="827" pageHeight="1169" math="0" shadow="0">
      <root>
        <mxCell id="0" />
        <mxCell id="1" parent="0" />
        <mxCell id="QgTYGsUYSailKNq_mToX-38" style="edgeStyle=orthogonalEdgeStyle;rounded=0;orthogonalLoop=1;jettySize=auto;html=1;exitX=0.5;exitY=1;exitDx=0;exitDy=0;entryX=-0.029;entryY=0.167;entryDx=0;entryDy=0;entryPerimeter=0;" edge="1" parent="1" source="QgTYGsUYSailKNq_mToX-34" target="OSD-rZQ_V-XbJ5NN2biw-45">
          <mxGeometry relative="1" as="geometry" />
        </mxCell>
        <mxCell id="QgTYGsUYSailKNq_mToX-39" value="推送工单状态变更消息" style="edgeLabel;html=1;align=center;verticalAlign=middle;resizable=0;points=[];" vertex="1" connectable="0" parent="QgTYGsUYSailKNq_mToX-38">
          <mxGeometry x="-0.6181" y="-1" relative="1" as="geometry">
            <mxPoint as="offset" />
          </mxGeometry>
        </mxCell>
        <mxCell id="QgTYGsUYSailKNq_mToX-34" value="" style="rounded=0;whiteSpace=wrap;html=1;" vertex="1" parent="1">
          <mxGeometry x="67" y="230" width="600" height="110" as="geometry" />
        </mxCell>
        <mxCell id="QgTYGsUYSailKNq_mToX-26" style="edgeStyle=orthogonalEdgeStyle;rounded=0;orthogonalLoop=1;jettySize=auto;html=1;exitX=0.75;exitY=0;exitDx=0;exitDy=0;entryX=0.75;entryY=1;entryDx=0;entryDy=0;" edge="1" parent="1" source="OSD-rZQ_V-XbJ5NN2biw-43" target="OSD-rZQ_V-XbJ5NN2biw-80">
          <mxGeometry relative="1" as="geometry">
            <Array as="points">
              <mxPoint x="775" y="180" />
              <mxPoint x="389" y="180" />
            </Array>
          </mxGeometry>
        </mxCell>
        <mxCell id="QgTYGsUYSailKNq_mToX-27" value="手动创建" style="edgeLabel;html=1;align=center;verticalAlign=middle;resizable=0;points=[];" vertex="1" connectable="0" parent="QgTYGsUYSailKNq_mToX-26">
          <mxGeometry x="0.3559" y="-1" relative="1" as="geometry">
            <mxPoint as="offset" />
          </mxGeometry>
        </mxCell>
        <mxCell id="OSD-rZQ_V-XbJ5NN2biw-43" value="用户" style="swimlane;fontStyle=0;childLayout=stackLayout;horizontal=1;startSize=30;horizontalStack=0;resizeParent=1;resizeParentMax=0;resizeLast=0;collapsible=1;marginBottom=0;whiteSpace=wrap;html=1;" parent="1" vertex="1">
          <mxGeometry x="670" y="470" width="140" height="120" as="geometry">
            <mxRectangle x="430" y="370" width="60" height="30" as="alternateBounds" />
          </mxGeometry>
        </mxCell>
        <mxCell id="OSD-rZQ_V-XbJ5NN2biw-44" value="管理层" style="text;strokeColor=none;fillColor=none;align=left;verticalAlign=middle;spacingLeft=4;spacingRight=4;overflow=hidden;points=[[0,0.5],[1,0.5]];portConstraint=eastwest;rotatable=0;whiteSpace=wrap;html=1;" parent="OSD-rZQ_V-XbJ5NN2biw-43" vertex="1">
          <mxGeometry y="30" width="140" height="30" as="geometry" />
        </mxCell>
        <mxCell id="OSD-rZQ_V-XbJ5NN2biw-45" value="研发人员" style="text;strokeColor=none;fillColor=none;align=left;verticalAlign=middle;spacingLeft=4;spacingRight=4;overflow=hidden;points=[[0,0.5],[1,0.5]];portConstraint=eastwest;rotatable=0;whiteSpace=wrap;html=1;" parent="OSD-rZQ_V-XbJ5NN2biw-43" vertex="1">
          <mxGeometry y="60" width="140" height="30" as="geometry" />
        </mxCell>
        <mxCell id="OSD-rZQ_V-XbJ5NN2biw-46" value="运维人员" style="text;strokeColor=none;fillColor=none;align=left;verticalAlign=middle;spacingLeft=4;spacingRight=4;overflow=hidden;points=[[0,0.5],[1,0.5]];portConstraint=eastwest;rotatable=0;whiteSpace=wrap;html=1;" parent="OSD-rZQ_V-XbJ5NN2biw-43" vertex="1">
          <mxGeometry y="90" width="140" height="30" as="geometry" />
        </mxCell>
        <mxCell id="OSD-rZQ_V-XbJ5NN2biw-78" style="edgeStyle=orthogonalEdgeStyle;rounded=0;orthogonalLoop=1;jettySize=auto;html=1;exitX=0.5;exitY=1;exitDx=0;exitDy=0;entryX=0.5;entryY=0;entryDx=0;entryDy=0;" parent="1" source="OSD-rZQ_V-XbJ5NN2biw-54" edge="1" target="OSD-rZQ_V-XbJ5NN2biw-80">
          <mxGeometry relative="1" as="geometry">
            <mxPoint x="366" y="107" as="targetPoint" />
          </mxGeometry>
        </mxCell>
        <mxCell id="OSD-rZQ_V-XbJ5NN2biw-54" value="触发规则" style="ellipse;whiteSpace=wrap;html=1;" parent="1" vertex="1">
          <mxGeometry x="326" y="20" width="80" height="40" as="geometry" />
        </mxCell>
        <mxCell id="QgTYGsUYSailKNq_mToX-23" style="edgeStyle=orthogonalEdgeStyle;rounded=0;orthogonalLoop=1;jettySize=auto;html=1;exitX=1;exitY=0.5;exitDx=0;exitDy=0;entryX=0.5;entryY=0;entryDx=0;entryDy=0;" edge="1" parent="1" source="OSD-rZQ_V-XbJ5NN2biw-80" target="OSD-rZQ_V-XbJ5NN2biw-43">
          <mxGeometry relative="1" as="geometry" />
        </mxCell>
        <mxCell id="QgTYGsUYSailKNq_mToX-24" value="通知用户" style="edgeLabel;html=1;align=center;verticalAlign=middle;resizable=0;points=[];" vertex="1" connectable="0" parent="QgTYGsUYSailKNq_mToX-23">
          <mxGeometry x="0.4944" y="2" relative="1" as="geometry">
            <mxPoint as="offset" />
          </mxGeometry>
        </mxCell>
        <mxCell id="QgTYGsUYSailKNq_mToX-28" style="edgeStyle=none;rounded=0;orthogonalLoop=1;jettySize=auto;html=1;exitX=0.5;exitY=1;exitDx=0;exitDy=0;" edge="1" parent="1" source="OSD-rZQ_V-XbJ5NN2biw-80">
          <mxGeometry relative="1" as="geometry">
            <mxPoint x="366" y="230" as="targetPoint" />
          </mxGeometry>
        </mxCell>
        <mxCell id="OSD-rZQ_V-XbJ5NN2biw-80" value="创建工单" style="rounded=1;whiteSpace=wrap;html=1;" parent="1" vertex="1">
          <mxGeometry x="321" y="120" width="90" height="40" as="geometry" />
        </mxCell>
        <mxCell id="AnqzCqNc_b7Of7x_9liy-7" style="edgeStyle=orthogonalEdgeStyle;rounded=0;orthogonalLoop=1;jettySize=auto;html=1;exitX=1;exitY=0.5;exitDx=0;exitDy=0;" parent="1" source="AnqzCqNc_b7Of7x_9liy-1" edge="1">
          <mxGeometry relative="1" as="geometry">
            <mxPoint x="320" y="40" as="targetPoint" />
          </mxGeometry>
        </mxCell>
        <mxCell id="QgTYGsUYSailKNq_mToX-21" value="告警" style="edgeLabel;html=1;align=center;verticalAlign=middle;resizable=0;points=[];" vertex="1" connectable="0" parent="AnqzCqNc_b7Of7x_9liy-7">
          <mxGeometry x="-0.1943" y="1" relative="1" as="geometry">
            <mxPoint as="offset" />
          </mxGeometry>
        </mxCell>
        <mxCell id="AnqzCqNc_b7Of7x_9liy-1" value="烽火台" style="ellipse;whiteSpace=wrap;html=1;" parent="1" vertex="1">
          <mxGeometry x="30" y="20" width="80" height="40" as="geometry" />
        </mxCell>
        <mxCell id="AnqzCqNc_b7Of7x_9liy-6" style="edgeStyle=orthogonalEdgeStyle;rounded=0;orthogonalLoop=1;jettySize=auto;html=1;exitX=0;exitY=0.5;exitDx=0;exitDy=0;" parent="1" source="AnqzCqNc_b7Of7x_9liy-3" edge="1">
          <mxGeometry relative="1" as="geometry">
            <mxPoint x="410" y="40" as="targetPoint" />
          </mxGeometry>
        </mxCell>
        <mxCell id="QgTYGsUYSailKNq_mToX-22" value="配置触发&lt;br&gt;规则" style="edgeLabel;html=1;align=center;verticalAlign=middle;resizable=0;points=[];" vertex="1" connectable="0" parent="AnqzCqNc_b7Of7x_9liy-6">
          <mxGeometry x="-0.1093" y="-3" relative="1" as="geometry">
            <mxPoint y="3" as="offset" />
          </mxGeometry>
        </mxCell>
        <mxCell id="AnqzCqNc_b7Of7x_9liy-3" value="策略中心" style="ellipse;whiteSpace=wrap;html=1;" parent="1" vertex="1">
          <mxGeometry x="630" y="20" width="80" height="40" as="geometry" />
        </mxCell>
        <mxCell id="AnqzCqNc_b7Of7x_9liy-4" style="edgeStyle=orthogonalEdgeStyle;rounded=0;orthogonalLoop=1;jettySize=auto;html=1;exitX=1;exitY=0.5;exitDx=0;exitDy=0;entryX=1;entryY=0.5;entryDx=0;entryDy=0;" parent="1" source="OSD-rZQ_V-XbJ5NN2biw-45" target="AnqzCqNc_b7Of7x_9liy-3" edge="1">
          <mxGeometry relative="1" as="geometry">
            <mxPoint x="800" y="50" as="targetPoint" />
            <Array as="points">
              <mxPoint x="810" y="435" />
              <mxPoint x="810" y="40" />
            </Array>
          </mxGeometry>
        </mxCell>
        <mxCell id="QgTYGsUYSailKNq_mToX-1" style="edgeStyle=orthogonalEdgeStyle;rounded=0;orthogonalLoop=1;jettySize=auto;html=1;exitX=1;exitY=0.5;exitDx=0;exitDy=0;entryX=0;entryY=0.5;entryDx=0;entryDy=0;" edge="1" parent="1" source="QgTYGsUYSailKNq_mToX-2">
          <mxGeometry relative="1" as="geometry">
            <mxPoint x="104.5" y="285" as="sourcePoint" />
            <mxPoint x="199.5" y="285" as="targetPoint" />
          </mxGeometry>
        </mxCell>
        <mxCell id="QgTYGsUYSailKNq_mToX-6" style="edgeStyle=orthogonalEdgeStyle;rounded=0;orthogonalLoop=1;jettySize=auto;html=1;exitX=1;exitY=0.5;exitDx=0;exitDy=0;entryX=0;entryY=0.5;entryDx=0;entryDy=0;" edge="1" parent="1" source="QgTYGsUYSailKNq_mToX-7" target="QgTYGsUYSailKNq_mToX-9">
          <mxGeometry relative="1" as="geometry" />
        </mxCell>
        <mxCell id="QgTYGsUYSailKNq_mToX-20" value="" style="edgeStyle=orthogonalEdgeStyle;rounded=0;orthogonalLoop=1;jettySize=auto;html=1;" edge="1" parent="1" source="QgTYGsUYSailKNq_mToX-7" target="QgTYGsUYSailKNq_mToX-9">
          <mxGeometry relative="1" as="geometry" />
        </mxCell>
        <mxCell id="QgTYGsUYSailKNq_mToX-7" value="处理中" style="rounded=0;whiteSpace=wrap;html=1;" vertex="1" parent="1">
          <mxGeometry x="198.5" y="270" width="60" height="30" as="geometry" />
        </mxCell>
        <mxCell id="QgTYGsUYSailKNq_mToX-8" style="edgeStyle=orthogonalEdgeStyle;rounded=0;orthogonalLoop=1;jettySize=auto;html=1;exitX=1;exitY=0.5;exitDx=0;exitDy=0;entryX=0;entryY=0.5;entryDx=0;entryDy=0;" edge="1" parent="1" source="QgTYGsUYSailKNq_mToX-9" target="QgTYGsUYSailKNq_mToX-11">
          <mxGeometry relative="1" as="geometry" />
        </mxCell>
        <mxCell id="QgTYGsUYSailKNq_mToX-9" value="已恢复" style="rounded=0;whiteSpace=wrap;html=1;" vertex="1" parent="1">
          <mxGeometry x="298.5" y="270" width="60" height="30" as="geometry" />
        </mxCell>
        <mxCell id="QgTYGsUYSailKNq_mToX-10" style="edgeStyle=orthogonalEdgeStyle;rounded=0;orthogonalLoop=1;jettySize=auto;html=1;exitX=1;exitY=0.5;exitDx=0;exitDy=0;entryX=0;entryY=0.5;entryDx=0;entryDy=0;" edge="1" parent="1" source="QgTYGsUYSailKNq_mToX-11" target="QgTYGsUYSailKNq_mToX-12">
          <mxGeometry relative="1" as="geometry" />
        </mxCell>
        <mxCell id="QgTYGsUYSailKNq_mToX-11" value="复盘中" style="rounded=0;whiteSpace=wrap;html=1;" vertex="1" parent="1">
          <mxGeometry x="395.5" y="270" width="60" height="30" as="geometry" />
        </mxCell>
        <mxCell id="QgTYGsUYSailKNq_mToX-41" style="edgeStyle=orthogonalEdgeStyle;rounded=0;orthogonalLoop=1;jettySize=auto;html=1;exitX=1;exitY=0.5;exitDx=0;exitDy=0;" edge="1" parent="1" source="QgTYGsUYSailKNq_mToX-12" target="QgTYGsUYSailKNq_mToX-40">
          <mxGeometry relative="1" as="geometry" />
        </mxCell>
        <mxCell id="QgTYGsUYSailKNq_mToX-12" value="已复盘" style="rounded=0;whiteSpace=wrap;html=1;" vertex="1" parent="1">
          <mxGeometry x="492.5" y="270" width="60" height="30" as="geometry" />
        </mxCell>
        <mxCell id="QgTYGsUYSailKNq_mToX-19" value="" style="edgeStyle=orthogonalEdgeStyle;rounded=0;orthogonalLoop=1;jettySize=auto;html=1;exitX=1;exitY=0.5;exitDx=0;exitDy=0;entryX=0;entryY=0.5;entryDx=0;entryDy=0;" edge="1" parent="1" target="QgTYGsUYSailKNq_mToX-2">
          <mxGeometry relative="1" as="geometry">
            <mxPoint x="104.5" y="285" as="sourcePoint" />
            <mxPoint x="199.5" y="285" as="targetPoint" />
          </mxGeometry>
        </mxCell>
        <mxCell id="QgTYGsUYSailKNq_mToX-2" value="待处理" style="rounded=0;whiteSpace=wrap;html=1;" vertex="1" parent="1">
          <mxGeometry x="93.5" y="270" width="60" height="30" as="geometry" />
        </mxCell>
        <mxCell id="QgTYGsUYSailKNq_mToX-40" value="已完成" style="rounded=0;whiteSpace=wrap;html=1;" vertex="1" parent="1">
          <mxGeometry x="587" y="270" width="60" height="30" as="geometry" />
        </mxCell>
      </root>
    </mxGraphModel>
  </diagram>
</mxfile>
